#!OML:ASF I:\Actors\actors\Patient Classification 2\Patient 1\Session 1\actor1.ASF
:FULLY-SPECIFIED
:DEGREES
865
root -0.51715 18.7158 5.50756 2.21074 -2.09398 -0.974479
lowerback 2.63714 -0.911875 -1.85113
upperback -1.68899 -1.25705 1.19479
thorax -3.1493 -0.573011 2.3344
lowerneck -9.27545 1.91344 1.2387
upperneck 23.0701 0.689466 7.39672
head 8.70223 1.17494 2.36351
rclavicle -3.53697e-016 1.17283e-014
rhumerus -51.8748 -2.87561 -80.7709
rradius 53.7318
rwrist 15.1779
rhand -4.37908 -40.2485
rfingers 7.12502
rthumb 21.3899 -69.0878
lclavicle -3.53697e-016 1.17283e-014
lhumerus -3.0025 -36.9877 78.0162
lradius 127.078
lwrist 14.0252
lhand -18.3787 -63.9885
lfingers 7.12502
lthumb 7.90486 -34.1563
rfemur 0 0 0
rtibia 0
rfoot 0 0
rtoes 0
lfemur -5.37436 -5.74097 -13.9887
ltibia 21.5917
lfoot -22.7129 15.4388
ltoes -54.7818
866
root -0.518112 18.7165 5.5039 2.232 -2.12047 -0.969636
lowerback 2.59212 -0.907092 -1.88622
upperback -1.72443 -1.25074 1.22011
thorax -3.15963 -0.568353 2.37948
lowerneck -9.30318 1.88593 1.23223
upperneck 23.3112 0.685538 7.18403
head 8.79077 1.15705 2.29836
rclavicle -2.85388e-014 1.35174e-014
rhumerus -51.9355 -3.18722 -80.501
rradius 53.4272
rwrist 15.1887
rhand -4.48122 -40.1944
rfingers 7.12502
rthumb 21.2918 -69.0449
lclavicle -2.85388e-014 1.35174e-014
lhumerus -3.79606 -36.4998 78.6588
lradius 126.338
lwrist 15.2113
lhand -18.3991 -62.574
lfingers 7.12502
lthumb 7.88511 -32.741
rfemur 0 0 0
rtibia 0
rfoot 0 0
rtoes 0
lfemur -5.39481 -5.80611 -13.9906
ltibia 21.5821
lfoot -22.7372 15.494
ltoes -54.7856
867
root -0.519389 18.717 5.50104 2.2341 -2.15938 -0.985789
lowerback 2.53594 -0.854164 -1.85734
upperback -1.73711 -1.17887 1.1927
thorax -3.14602 -0.533522 2.33039
lowerneck -9.29824 1.80384 1.47235
upperneck 23.4591 0.603477 6.81359
head 8.84794 1.10497 2.12663
rclavicle 3.47485e-015 -8.94531e-015
rhumerus -51.9842 -3.73541 -80.2236
rradius 53.1548
rwrist 15.3103
rhand -4.5241 -40.0945
rfingers 7.12502
rthumb 21.2506 -68.9495
lclavicle 3.47485e-015 -8.94531e-015
lhumerus -4.66493 -36.1396 79.3066
lradius 125.657
lwrist 16.5894
lhand -18.2927 -60.8361
lfingers 7.12502
lthumb 7.98784 -31.007
rfemur 0 0 0
rtibia 0
rfoot 0 0
rtoes 0
lfemur -5.38971 -5.87723 -13.9763
ltibia 21.5752
lfoot -22.7761 15.5988
ltoes -54.8354
868
root -0.519867 18.7164 5.49815 2.20453 -2.20774 -0.999786
lowerback 2.50808 -0.833094 -1.8082
upperback -1.71965 -1.14896 1.17193
thorax -3.11514 -0.520475 2.27907
lowerneck -9.37811 1.7475 1.60951
upperneck 23.6 0.558157 6.51252
head 8.91546 1.0692 2.00044
rclavicle -2.27849e-014 3.57812e-015
rhumerus -51.9372 -4.15661 -79.9801
rradius 52.893
rwrist 15.4634
rhand -4.48606 -39.966
rfingers 7.12502
rthumb 21.2871 -68.8169
lclavicle -2.27849e-014 3.57812e-015
lhumerus -5.64533 -35.6633 79.9622
lradius 124.986
lwrist 17.8893
lhand -18.108 -59.3586
lfingers 7.12502
lthumb 8.16615 -29.5364
rfemur 0 0 0
rtibia 0
rfoot 0 0
rtoes 0
lfemur -5.35332 -5.89593 -13.9719
ltibia 21.5685
lfoot -22.7875 15.6992
ltoes -54.9383
869
root -0.520001 18.7155 5.49459 2.16896 -2.2425 -0.980597
lowerback 2.5167 -0.835645 -1.80717
upperback -1.70037 -1.1525 1.16921
thorax -3.09997 -0.522663 2.27578
lowerneck -9.49541 1.7134 1.61688
upperneck 23.7204 0.544031 6.31656
head 8.97996 1.04735 1.93508
rclavicle -5.49764e-015 5.66536e-015
rhumerus -51.7799 -4.4937 -79.7628
rradius 52.5381
rwrist 15.669
rhand -4.53842 -39.8335
rfingers 7.12502
rthumb 21.2368 -68.6901
lclavicle -5.49764e-015 5.66536e-015
lhumerus -6.69672 -35.1585 80.6308
lradius 124.36
lwrist 19.2065
lhand -18.0311 -58.314
lfingers 7.12502
lthumb 8.2403 -28.4947
rfemur 0 0 0
rtibia 0
rfoot 0 0
rtoes 0
lfemur -5.31359 -5.88724 -13.9988
ltibia 21.555
lfoot -22.7969 15.7285
ltoes -54.9407
